<?xml version="1.0" encoding="UTF-8" standalone="no"?>
<!DOCTYPE svg PUBLIC "-//W3C//DTD SVG 20010904//EN"
              "http://www.w3.org/TR/2001/REC-SVG-20010904/DTD/svg10.dtd">

<svg xmlns="http://www.w3.org/2000/svg"
     width="0.213333in" height="0.213333in"
     viewBox="0 0 64 64">
  <path id="Path"
        fill="yellow" stroke="black" stroke-width="1"
        d="M 30.19,49.00
           C 30.19,49.00 25.55,49.00 25.55,49.00
             25.55,49.00 22.34,40.00 22.34,40.00
             22.34,40.00 8.20,40.00 8.20,40.00
             8.20,40.00 5.00,49.00 5.00,49.00
             5.00,49.00 0.58,49.00 0.58,49.00
             0.58,49.00 12.48,16.00 12.48,16.00
             12.48,16.00 18.28,16.00 18.28,16.00
             18.28,16.00 30.19,49.00 30.19,49.00 Z
           M 21.00,36.00
           C 21.00,36.00 15.27,19.83 15.27,19.83
             15.27,19.83 9.52,36.00 9.52,36.00
             9.52,36.00 21.00,36.00 21.00,36.00 Z
           M 62.69,46.78
           C 60.89,47.65 58.94,48.40 56.83,49.03
             54.71,49.68 52.66,50.00 50.69,50.00
             48.14,50.00 45.81,49.64 43.69,48.92
             41.56,48.20 39.75,47.11 38.25,45.66
             36.74,44.19 35.57,42.36 34.75,40.16
             33.94,37.96 33.53,35.39 33.53,32.44
             33.53,27.05 35.05,22.80 38.11,19.69
             41.16,16.56 45.35,15.00 50.69,15.00
             52.54,15.00 54.44,15.23 56.38,15.67
             58.32,16.11 60.41,16.86 62.66,17.91
             62.66,17.91 62.66,23.00 62.66,23.00
             62.66,23.00 62.27,23.00 62.27,23.00
             61.80,22.68 61.14,22.26 60.28,21.73
             59.41,21.21 58.57,20.78 57.73,20.44
             56.72,20.02 55.58,19.68 54.30,19.41
             53.02,19.14 51.56,19.00 49.94,19.00
             46.27,19.00 43.37,20.20 41.23,22.59
             39.11,24.99 38.05,28.23 38.05,32.33
             38.05,36.65 39.16,40.01 41.39,42.41
             43.62,44.80 46.65,46.00 50.48,46.00
             51.89,46.00 53.29,45.86 54.69,45.56
             56.09,45.27 57.32,44.89 58.38,44.42
             58.38,44.42 58.38,36.00 58.38,36.00
             58.38,36.00 49.61,36.00 49.61,36.00
             49.61,36.00 49.61,32.00 49.61,32.00
             49.61,32.00 62.69,32.00 62.69,32.00
             62.69,32.00 62.69,46.78 62.69,46.78 Z" />
</svg>
